<svg xmlns="http://www.w3.org/2000/svg" version="1.1" xmlns:xlink="http://www.w3.org/1999/xlink" xmlns:svgjs="http://svgjs.com/svgjs" width="1440" height="560" preserveAspectRatio="none" viewBox="0 0 1440 560"><g mask="url(&quot;#SvgjsMask1000&quot;)" fill="none"><rect width="1440" height="560" x="0" y="0" fill="#0e2a47"></rect><path d="M232.227,518.719C251.371,518.461,271.572,512.511,280.584,495.618C289.231,479.408,281.794,460.248,271.559,444.991C262.642,431.699,248.233,423.438,232.227,423.537C216.397,423.635,202.723,432.445,193.731,445.473C182.996,461.027,172.766,480.224,181.558,496.953C190.724,514.393,212.527,518.985,232.227,518.719" fill="rgba(28, 83, 142, 0.4)" class="triangle-float1"></path><path d="M409.269,452.8C458.068,453.968,506.328,435.083,532.558,393.916C560.794,349.601,566.407,292.685,540.365,247.046C514.118,201.048,462.096,174.099,409.269,177.849C361.67,181.228,329.53,221.62,306.878,263.62C285.659,302.964,274.519,348.936,295.796,388.248C317.997,429.267,362.641,451.684,409.269,452.8" fill="rgba(28, 83, 142, 0.4)" class="triangle-float3"></path><path d="M1282.1939076390852 385.3571724549464L1149.9194338560583 488.7013175753649 1385.5380527595037 517.6316462379732z" fill="rgba(28, 83, 142, 0.4)" class="triangle-float3"></path><path d="M701.452,480.847C748.549,481.062,800.967,473.197,823.923,432.074C846.523,391.59,824.623,343.748,799.87,304.543C777.221,268.671,743.784,240.884,701.452,238.099C653.628,234.953,603.122,249.287,577.72,289.928C551.007,332.666,553.493,388.67,580.904,430.964C606.253,470.078,654.842,480.634,701.452,480.847" fill="rgba(28, 83, 142, 0.4)" class="triangle-float1"></path><path d="M1425.161,435.163C1448.889,434.329,1472.418,424.354,1483.517,403.365C1494.047,383.452,1486.614,360.2,1475.014,340.891C1463.843,322.296,1446.852,306.556,1425.161,306.229C1402.98,305.895,1384.719,320.743,1372.636,339.348C1359.075,360.228,1347.268,385.903,1359.236,407.735C1371.499,430.104,1399.667,436.059,1425.161,435.163" fill="rgba(28, 83, 142, 0.4)" class="triangle-float3"></path><path d="M1541.2830198797008-26.3525333476304L1413.5232951097594-88.66511462413594 1351.2107138332537 39.09461014580549 1478.9704386031951 101.40719142231103z" fill="rgba(28, 83, 142, 0.4)" class="triangle-float1"></path></g><defs><mask id="SvgjsMask1000"><rect width="1440" height="560" fill="#ffffff"></rect></mask><style>
            @keyframes float1 {
                0%{transform: translate(0, 0)}
                50%{transform: translate(-10px, 0)}
                100%{transform: translate(0, 0)}
            }

            .triangle-float1 {
                animation: float1 5s infinite;
            }

            @keyframes float2 {
                0%{transform: translate(0, 0)}
                50%{transform: translate(-5px, -5px)}
                100%{transform: translate(0, 0)}
            }

            .triangle-float2 {
                animation: float2 4s infinite;
            }

            @keyframes float3 {
                0%{transform: translate(0, 0)}
                50%{transform: translate(0, -10px)}
                100%{transform: translate(0, 0)}
            }

            .triangle-float3 {
                animation: float3 6s infinite;
            }
        </style></defs></svg>